<?xml version="1.0" encoding="UTF-8"?>
<svg id="Layer_1" data-name="Layer 1" xmlns="http://www.w3.org/2000/svg" viewBox="0 0 23 23">
  <defs>
    <style>
      .cls-1 {
        fill: #6cace4;
      }
    </style>
  </defs>
  <path class="cls-1" d="M4.99,1.55c2.64,2.25,5.47,6.81,6.51,9.25,1.04-2.45,3.88-7.01,6.51-9.25,1.9-1.62,4.99-2.88,4.99,1.12,0,.8-.4,6.7-.64,7.66-.82,3.33-3.81,4.18-6.47,3.67,4.65.9,5.83,3.88,3.28,6.86-4.85,5.66-6.98-1.42-7.52-3.23-.1-.33-.15-.49-.15-.36,0-.13-.05.02-.15.36-.54,1.81-2.67,8.89-7.52,3.23-2.56-2.98-1.37-5.96,3.28-6.86-2.66.51-5.65-.34-6.47-3.67-.24-.96-.64-6.86-.64-7.66C0-1.33,3.08-.07,4.99,1.55Z"/>
</svg>