<svg id="Layer_1" data-name="Layer 1" xmlns="http://www.w3.org/2000/svg" xmlns:xlink="http://www.w3.org/1999/xlink" viewBox="0 0 226.78 43.16"><defs><style>.cls-1{fill:none;}.cls-2{clip-path:url(#clip-path);}.cls-3{fill:#fff;}.cls-4{clip-path:url(#clip-path-2);}.cls-5{clip-path:url(#clip-path-3);}</style><clipPath id="clip-path" transform="translate(-43.1 -42.95)"><rect class="cls-1" width="313" height="130"/></clipPath><clipPath id="clip-path-2" transform="translate(-43.1 -42.95)"><rect class="cls-1" x="43.1" y="42.95" width="40.25" height="43.37"/></clipPath><clipPath id="clip-path-3" transform="translate(-43.1 -42.95)"><rect class="cls-1" x="89.88" y="47.92" width="180" height="24.58"/></clipPath></defs><g class="cls-2"><path class="cls-3" d="M122.86,77.68a8.93,8.93,0,0,0-.23-2.56.75.75,0,0,0-.62-.26l-.31,0a.23.23,0,0,1,0-.3c.47,0,.93,0,1.41,0s.86,0,1.3,0a.22.22,0,0,1,0,.3l-.3,0a.72.72,0,0,0-.62.29,11.34,11.34,0,0,0-.17,2.53v1.4a4.27,4.27,0,0,1-.87,3,3.23,3.23,0,0,1-2.37.91,3.5,3.5,0,0,1-2.31-.68,3.54,3.54,0,0,1-1-2.93V76.42c0-1.29,0-1.5-.74-1.56l-.31,0c-.08,0,0-.26,0-.3.62,0,1,0,1.54,0s.92,0,1.52,0a.23.23,0,0,1,0,.3l-.3,0c-.72.06-.74.27-.74,1.56V79.1c0,2,.62,3.3,2.51,3.3s2.48-1.41,2.48-3.29Z" transform="translate(-43.1 -42.95)"/><path class="cls-3" d="M139.05,80.64c0,.38,0,1.85,0,2.17a.21.21,0,0,1-.23.14c-.15-.21-.51-.65-1.59-1.87l-2.87-3.27c-.34-.39-1.18-1.4-1.44-1.68h0a3.21,3.21,0,0,0-.06.81v2.7a9.82,9.82,0,0,0,.22,2.57.85.85,0,0,0,.64.23l.38,0a.23.23,0,0,1,0,.31c-.55,0-1,0-1.44,0s-.86,0-1.29,0a.23.23,0,0,1,0-.31l.34,0c.28,0,.48-.11.54-.25a11.53,11.53,0,0,0,.16-2.55V76.06a1.12,1.12,0,0,0-.27-.89,1.31,1.31,0,0,0-.77-.3l-.21,0a.22.22,0,0,1,0-.31c.52,0,1.17,0,1.4,0a3.4,3.4,0,0,0,.57,0,16.32,16.32,0,0,0,2.12,2.73l1.2,1.35c.85,1,1.46,1.65,2,2.25h0a1.32,1.32,0,0,0,.05-.53V77.68a8.87,8.87,0,0,0-.25-2.56c-.07-.12-.27-.19-.77-.25l-.21,0c-.09-.07-.08-.27,0-.31.57,0,1,0,1.47,0s.85,0,1.27,0a.22.22,0,0,1,0,.31l-.18,0c-.39.06-.64.16-.69.26a10,10,0,0,0-.19,2.55Z" transform="translate(-43.1 -42.95)"/><path class="cls-3" d="M148.28,76.46c0-1.32,0-1.53-.75-1.59l-.31,0c-.08,0-.05-.27,0-.31.62,0,1,0,1.57,0s.91,0,1.53,0c.07,0,.1.26,0,.31l-.31,0c-.73.06-.76.27-.76,1.59v4.41c0,1.31,0,1.48.76,1.57l.31,0c.07,0,0,.27,0,.31-.62,0-1,0-1.53,0s-.95,0-1.57,0a.24.24,0,0,1,0-.31l.31,0c.73-.09.75-.26.75-1.57Z" transform="translate(-43.1 -42.95)"/><path class="cls-3" d="M158.32,75.88c-.28-.69-.47-.95-1-1l-.23,0a.21.21,0,0,1,0-.31c.36,0,.75,0,1.29,0s1,0,1.5,0a.22.22,0,0,1,0,.31l-.18,0c-.48.06-.57.13-.59.23a17.17,17.17,0,0,0,.62,1.74c.57,1.44,1.14,2.86,1.76,4.28.39-.82.91-2.1,1.19-2.76.36-.84,1-2.24,1.16-2.77a1.3,1.3,0,0,0,.11-.49c0-.08-.13-.18-.56-.23l-.22,0a.21.21,0,0,1,0-.31c.35,0,.82,0,1.29,0s.79,0,1.2,0a.24.24,0,0,1,0,.31l-.37,0a.78.78,0,0,0-.65.43,29.83,29.83,0,0,0-1.39,2.85l-.67,1.53c-.49,1.14-1.08,2.57-1.29,3.23a.18.18,0,0,1-.13,0,.43.43,0,0,1-.19,0,16.16,16.16,0,0,0-.57-1.65Z" transform="translate(-43.1 -42.95)"/><path class="cls-3" d="M173.24,76.43c0-1.29,0-1.47-.76-1.56l-.2,0c-.07,0,0-.27,0-.31.53,0,.95,0,1.46,0h2.33a15.23,15.23,0,0,0,1.67,0,13,13,0,0,1,.2,1.65.24.24,0,0,1-.31,0c-.18-.59-.29-1-.94-1.18a6.09,6.09,0,0,0-1.2-.07h-.89c-.37,0-.37,0-.37.49v2.48c0,.35,0,.35.4.35h.72a4.54,4.54,0,0,0,1.06-.08c.15,0,.23-.12.3-.43l.09-.51a.27.27,0,0,1,.33,0c0,.3-.06.78-.06,1.26s.06.91.06,1.18a.26.26,0,0,1-.33,0l-.11-.49a.53.53,0,0,0-.38-.47,4.16,4.16,0,0,0-1-.06h-.72c-.37,0-.4,0-.4.34v1.74c0,.66,0,1.08.23,1.29s.41.29,1.5.29a3.57,3.57,0,0,0,1.59-.19,3.22,3.22,0,0,0,.88-1.2.23.23,0,0,1,.31.09,11.56,11.56,0,0,1-.56,1.72c-1.12,0-2.22,0-3.32,0h-1.12c-.53,0-1,0-1.69,0a.25.25,0,0,1,0-.31l.41,0c.71-.06.77-.25.77-1.55Z" transform="translate(-43.1 -42.95)"/><path class="cls-3" d="M186.67,76.44c0-1.17,0-1.39-.55-1.45l-.39,0a.2.2,0,0,1,0-.31c.69-.06,1.55-.1,2.76-.1a4.38,4.38,0,0,1,2.07.38,1.82,1.82,0,0,1,1,1.73,2.29,2.29,0,0,1-1.55,2.07c-.06.08,0,.2.06.3a13,13,0,0,0,2.5,3.29,1.42,1.42,0,0,0,.85.35.1.1,0,0,1,0,.17,1.76,1.76,0,0,1-.54.07c-1.06,0-1.69-.31-2.57-1.56-.32-.46-.83-1.32-1.21-1.87a.88.88,0,0,0-.88-.4c-.56,0-.58,0-.58.27v1.56c0,1.3,0,1.45.74,1.55l.26,0a.25.25,0,0,1,0,.31c-.56,0-1,0-1.48,0s-1,0-1.55,0a.24.24,0,0,1,0-.31l.3,0c.72-.09.75-.25.75-1.55Zm1,1.77a1.18,1.18,0,0,0,0,.41s.23.07.86.07a2,2,0,0,0,1.27-.33,1.75,1.75,0,0,0,.62-1.53,1.82,1.82,0,0,0-2-1.91c-.77,0-.8,0-.8.39Z" transform="translate(-43.1 -42.95)"/><path class="cls-3" d="M201.65,83a3.88,3.88,0,0,1-1.94-.46,5.52,5.52,0,0,1-.33-1.73c.06-.09.24-.12.3,0a2.24,2.24,0,0,0,2.13,1.84,1.41,1.41,0,0,0,1.55-1.42,1.84,1.84,0,0,0-1-1.73l-1.17-.77a2.63,2.63,0,0,1-1.34-2.13,2.23,2.23,0,0,1,2.52-2.14,5.24,5.24,0,0,1,1.16.16,1.65,1.65,0,0,0,.43.08,5.49,5.49,0,0,1,.22,1.51.25.25,0,0,1-.31,0,1.61,1.61,0,0,0-1.68-1.4,1.3,1.3,0,0,0-1.48,1.37,2,2,0,0,0,1.06,1.53l1,.62a2.79,2.79,0,0,1,1.55,2.38A2.34,2.34,0,0,1,201.65,83" transform="translate(-43.1 -42.95)"/><path class="cls-3" d="M212.71,76.46c0-1.32,0-1.53-.76-1.59l-.31,0a.24.24,0,0,1,0-.31c.62,0,1,0,1.56,0s.92,0,1.54,0c.07,0,.1.26,0,.31l-.31,0c-.73.06-.75.27-.75,1.59v4.41c0,1.31,0,1.48.75,1.57l.31,0c.08,0,.05.27,0,.31-.62,0-1,0-1.54,0s-.94,0-1.56,0a.24.24,0,0,1,0-.31l.31,0c.74-.09.76-.26.76-1.57Z" transform="translate(-43.1 -42.95)"/><path class="cls-3" d="M226.47,80.89c0,1.3,0,1.49.74,1.55l.4,0a.24.24,0,0,1,0,.31c-.7,0-1.12,0-1.62,0s-.93,0-1.72,0a.21.21,0,0,1,0-.31l.44,0c.71-.06.77-.25.77-1.55V75.35c0-.38,0-.39-.37-.39h-.68a2.53,2.53,0,0,0-1.53.31,2.22,2.22,0,0,0-.55.85A.25.25,0,0,1,222,76a12.26,12.26,0,0,0,.47-1.85.29.29,0,0,1,.24,0c.07.39.48.38,1.05.38h5c.67,0,.78,0,1-.35.06,0,.2,0,.22,0a7.21,7.21,0,0,0-.18,1.89c-.05.09-.26.09-.33,0a1.53,1.53,0,0,0-.3-.9,2.42,2.42,0,0,0-1.44-.31h-.88c-.37,0-.36,0-.36.42Z" transform="translate(-43.1 -42.95)"/><path class="cls-3" d="M240.59,80.87c0,1.32.08,1.52.75,1.57l.47,0a.24.24,0,0,1,0,.31c-.77,0-1.19,0-1.68,0s-1,0-1.63,0a.24.24,0,0,1,0-.31l.38,0c.72-.07.75-.25.75-1.57v-.64a2.47,2.47,0,0,0-.4-1.53l-1.46-2.85c-.42-.82-.61-.88-1-.94l-.35-.07a.23.23,0,0,1,0-.31c.39,0,.84,0,1.43,0s1,0,1.33,0c.11,0,.11.24,0,.31l-.16,0c-.44.06-.52.12-.52.22a6.83,6.83,0,0,0,.38,1c.46.91.92,1.89,1.4,2.75.38-.66.79-1.38,1.17-2.1a12.17,12.17,0,0,0,.8-1.63c0-.08-.22-.16-.52-.2l-.22,0a.2.2,0,0,1,0-.31c.45,0,.81,0,1.19,0s.73,0,1.16,0a.21.21,0,0,1,0,.31l-.35.07c-.64.11-1,.89-1.63,2l-.78,1.34a2.86,2.86,0,0,0-.59,2Z" transform="translate(-43.1 -42.95)"/></g><g class="cls-4"><path class="cls-3" d="M74.47,47.38c0-.07-2-1-2-1a19.32,19.32,0,0,0-9.28.75h0a19.32,19.32,0,0,0-9.28-.75s-1.93,1-1.95,1L49,54a.2.2,0,0,0,.22.31,78.73,78.73,0,0,1,14-1.13h0a78.73,78.73,0,0,1,14,1.13.2.2,0,0,0,.22-.31ZM62.52,52.11C59.29,52,53.72,52,50.93,53l2-5,1.36-.72-1.44,4.09a19,19,0,0,1,9.7.41Zm1.36,0v-.32a19,19,0,0,1,9.7-.41l-1.44-4.09,1.35.72,2,5c-2.65-1-8.22-1-11.6-.87" transform="translate(-43.1 -42.95)"/><path class="cls-3" d="M81.69,44.92h0l-.12,0a88.06,88.06,0,0,0-36.67,0l-.06,0h0A2.24,2.24,0,0,0,43.1,47.1v3.26c0,23.55,14.57,33.1,19,35.47a2.27,2.27,0,0,0,1.09.28,2.17,2.17,0,0,0,1.09-.29c4.46-2.36,19-11.91,19-35.46V47.1a2.26,2.26,0,0,0-1.66-2.18M62.4,84.47C57.48,81.75,47.59,74.05,45,58.25l.11,0A87.26,87.26,0,0,1,62.4,56.36ZM78,69.33v0a36.57,36.57,0,0,1-3.47,5.77h0a35.88,35.88,0,0,1-3.48,4V72.8l-3.48-2.32V82.19a30.19,30.19,0,0,1-3.48,2.28V68.16l3.48,2.32V62.37L71,64.69v-8c1.16.11,2.33.23,3.48.38V67L78,69.32V57.59c1.12.19,2.22.4,3.33.63l.12,0A40.06,40.06,0,0,1,78,69.33M64.05,60.05V56.36q1.74,0,3.48.09v5.92Zm18-9.69a50.73,50.73,0,0,1-.36,6.08,89.73,89.73,0,0,0-36.89,0,51,51,0,0,1-.36-6.09V47.09a.94.94,0,0,1,.72-.91h0a86.34,86.34,0,0,1,36.12,0h0a1,1,0,0,1,.76.92Z" transform="translate(-43.1 -42.95)"/><polygon class="cls-3" points="31.39 24.06 27.91 21.74 27.91 29.85 31.39 32.17 31.39 24.06"/><path class="cls-3" d="M55,72.11a6.37,6.37,0,1,0-6.37-6.37A6.38,6.38,0,0,0,55,72.11m1.16-.92a8.16,8.16,0,0,0,1.52-2.32,11.36,11.36,0,0,1,1.58.46,5.59,5.59,0,0,1-3.1,1.86m3.58-2.53a11.39,11.39,0,0,0-1.77-.55,7.43,7.43,0,0,0,.35-2h2.24a5.57,5.57,0,0,1-.82,2.52m0-5.84a5.61,5.61,0,0,1,.82,2.52H58.27a7.43,7.43,0,0,0-.35-2,11.39,11.39,0,0,0,1.77-.55m-.48-.67a11.36,11.36,0,0,1-1.58.46,8.1,8.1,0,0,0-1.52-2.31,5.57,5.57,0,0,1,3.1,1.85m-3.85-1.48a7.82,7.82,0,0,1,1.45,2.08,12.6,12.6,0,0,1-1.45.13Zm0,3a13.37,13.37,0,0,0,1.76-.16,7.17,7.17,0,0,1,.35,1.82H55.36Zm0,2.46h2.11A6.76,6.76,0,0,1,57.11,68a13.05,13.05,0,0,0-1.75-.16Zm0,2.47a10.76,10.76,0,0,1,1.45.12,8.05,8.05,0,0,1-1.45,2.08Zm-4.66.72a11.36,11.36,0,0,1,1.58-.46,8.38,8.38,0,0,0,1.52,2.32,5.59,5.59,0,0,1-3.1-1.86m3.85,1.48a8,8,0,0,1-1.44-2.08,10.47,10.47,0,0,1,1.44-.12Zm0-3A13.05,13.05,0,0,0,52.8,68a6.39,6.39,0,0,1-.35-1.82h2.1Zm0-2.46h-2.1a6.39,6.39,0,0,1,.35-1.82,13.05,13.05,0,0,0,1.75.16Zm0-2.46q-.78,0-1.44-.12a7.82,7.82,0,0,1,1.44-2.08Zm-.75-2.59a8.54,8.54,0,0,0-1.52,2.32,10.8,10.8,0,0,1-1.57-.46,5.53,5.53,0,0,1,3.09-1.86m-3.58,2.53a11.21,11.21,0,0,0,1.78.55,7.84,7.84,0,0,0-.36,2H49.41a5.44,5.44,0,0,1,.81-2.52m-.81,3.32h2.23a8.33,8.33,0,0,0,.35,2,11.39,11.39,0,0,0-1.77.55,5.44,5.44,0,0,1-.81-2.52" transform="translate(-43.1 -42.95)"/></g><g class="cls-5"><path class="cls-3" d="M95,52.33c0-3.16-.28-3.5-2-3.65l-.71,0a.56.56,0,0,1,.06-.71c1.65,0,2.61.08,3.81.08s2.1,0,3.24-.08a.56.56,0,0,1,.06.71l-.43,0c-1.68.23-1.73.63-1.73,3.65V62.88a15.81,15.81,0,0,1-.66,5.52,6.18,6.18,0,0,1-5.6,4.1c-.34,0-1.22,0-1.22-.6s.42-1.31,1-1.31a3.65,3.65,0,0,1,1,.17,4.19,4.19,0,0,0,1.2.2,1.22,1.22,0,0,0,1.14-.74c.65-1.34.73-5.6.73-7.14Z" transform="translate(-43.1 -42.95)"/><path class="cls-3" d="M99.46,59A8.3,8.3,0,0,1,108,50.55a7.9,7.9,0,0,1,8.33,8.24A8.2,8.2,0,0,1,108,67.16c-5.32,0-8.54-3.81-8.54-8.13m14.47.5c0-4-1.75-8.23-6.33-8.23-2.5,0-5.74,1.7-5.74,7,0,3.55,1.73,8.16,6.45,8.16,2.89,0,5.62-2.16,5.62-6.89" transform="translate(-43.1 -42.95)"/><path class="cls-3" d="M121.78,59c-1.15,0-1.2,0-1.2.77v3.38c0,2.52.12,2.86,1.47,3l.69.07c.15.1.1.53,0,.6-1.3,0-2.12-.07-3-.07s-1.85,0-2.79.07a.48.48,0,0,1,0-.6l.41-.07c1.35-.24,1.4-.48,1.4-3V54.54c0-2.52-.17-2.93-1.42-3l-.63-.05c-.14-.1-.09-.53.05-.6,1.18,0,2,.07,3,.07s1.75,0,2.78-.07c.14.07.19.5,0,.6l-.46.05c-1.39.14-1.44.5-1.44,3V57.3c0,.74,0,.77,1.2.77h6.87c1.15,0,1.2,0,1.2-.77V54.54c0-2.52,0-2.88-1.47-3l-.45-.05c-.15-.1-.1-.53,0-.6,1.1.05,1.92.07,2.9.07s1.75,0,2.83-.07c.14.07.19.5,0,.6l-.51.05c-1.39.14-1.43.5-1.43,3v8.64c0,2.52,0,2.83,1.43,3l.58.07a.47.47,0,0,1-.05.6c-1.15,0-2-.07-2.9-.07s-1.85,0-2.9.07a.45.45,0,0,1,0-.6l.45-.07c1.47-.24,1.47-.48,1.47-3V59.8c0-.72,0-.77-1.2-.77Z" transform="translate(-43.1 -42.95)"/><path class="cls-3" d="M150.22,62.7c0,.72,0,3.57.07,4.2a.42.42,0,0,1-.45.26c-.29-.4-1-1.24-3.07-3.62L141.2,57.2c-.65-.74-2.28-2.71-2.78-3.24h0a5.93,5.93,0,0,0-.12,1.56v5.24c0,1.12,0,4.24.43,5,.14.27.62.41,1.22.46l.75.07a.44.44,0,0,1-.05.6c-1.08,0-1.92-.07-2.81-.07s-1.65,0-2.49.07a.45.45,0,0,1-.05-.6l.65-.07c.55-.07.93-.22,1-.48a22.87,22.87,0,0,0,.31-4.94V53.82a2.21,2.21,0,0,0-.52-1.73,2.74,2.74,0,0,0-1.49-.58l-.41,0c-.14-.15-.14-.51,0-.6,1,.07,2.28.07,2.71.07a7.45,7.45,0,0,0,1.1-.07c.48,1.22,3.32,4.39,4.11,5.28l2.33,2.61c1.65,1.85,2.83,3.19,4,4.35h0a2.35,2.35,0,0,0,.1-1V57c0-1.12,0-4.24-.48-5-.14-.21-.53-.36-1.49-.48l-.41,0c-.16-.15-.14-.53,0-.6,1.11.05,1.92.07,2.83.07s1.66,0,2.47-.07a.41.41,0,0,1,0,.6l-.33,0c-.77.12-1.25.32-1.35.51-.4.86-.36,3.84-.36,4.94Z" transform="translate(-43.1 -42.95)"/><path class="cls-3" d="M156.57,67.16a7.45,7.45,0,0,1-3.75-.89,11,11,0,0,1-.64-3.35c.12-.17.48-.22.57-.08.36,1.23,1.35,3.58,4.13,3.58a2.73,2.73,0,0,0,3-2.76,3.61,3.61,0,0,0-2-3.36l-2.28-1.49A5.11,5.11,0,0,1,153,54.68c0-2.28,1.78-4.12,4.9-4.12a9.23,9.23,0,0,1,2.23.31A3.39,3.39,0,0,0,161,51a10.76,10.76,0,0,1,.43,2.93c-.1.14-.48.21-.6.07a3.14,3.14,0,0,0-3.27-2.71c-2.35,0-2.85,1.56-2.85,2.66a3.8,3.8,0,0,0,2,3l1.92,1.19c1.51.94,3,2.33,3,4.61,0,2.64-2,4.44-5.11,4.44" transform="translate(-43.1 -42.95)"/><path class="cls-3" d="M175.92,57.59c-1.36,0-1.42.06-1.42.91v4c0,3,.14,3.39,1.74,3.56l.82.08a.55.55,0,0,1-.06.71c-1.53,0-2.5-.08-3.61-.08s-2.19,0-3.3.08a.54.54,0,0,1-.05-.71l.48-.08c1.59-.29,1.65-.57,1.65-3.56V52.27c0-3-.2-3.47-1.68-3.58l-.74-.06c-.17-.11-.11-.63.06-.71,1.39,0,2.36.08,3.58.08s2.08,0,3.3-.08c.17.08.23.6.06.71l-.54.06c-1.65.17-1.71.59-1.71,3.58v3.27c0,.88.06.91,1.42.91h8.14c1.37,0,1.42,0,1.42-.91V52.27c0-3,0-3.41-1.73-3.58l-.54-.06c-.17-.11-.12-.63,0-.71,1.31,0,2.28.08,3.45.08s2.07,0,3.35-.08c.17.08.23.6.06.71l-.6.06c-1.65.17-1.71.59-1.71,3.58V62.51c0,3,.06,3.36,1.71,3.56l.69.08a.56.56,0,0,1-.06.71c-1.37,0-2.34-.08-3.44-.08s-2.19,0-3.45.08c-.17-.08-.22-.54,0-.71l.54-.08c1.73-.29,1.73-.57,1.73-3.56v-4c0-.85,0-.91-1.42-.91Z" transform="translate(-43.1 -42.95)"/><path class="cls-3" d="M190,59a8.3,8.3,0,0,1,8.54-8.48,7.91,7.91,0,0,1,8.33,8.24,8.2,8.2,0,0,1-8.33,8.37c-5.33,0-8.54-3.81-8.54-8.13m14.47.5c0-4-1.75-8.23-6.34-8.23-2.49,0-5.73,1.7-5.73,7,0,3.55,1.72,8.16,6.45,8.16,2.88,0,5.62-2.16,5.62-6.89" transform="translate(-43.1 -42.95)"/><path class="cls-3" d="M211.24,63.18c0,2.52,0,2.83,1.58,3l.65.07a.46.46,0,0,1-.05.6c-1.36,0-2.15-.07-3.12-.07s-1.87,0-2.92.07c-.15-.07-.19-.46,0-.6l.5-.07c1.39-.19,1.44-.48,1.44-3V54.32c0-2-.05-2.44-1.13-2.56l-.86-.1a.4.4,0,0,1,.05-.6,37.48,37.48,0,0,1,4.75-.19,8.65,8.65,0,0,1,4.61,1,4.14,4.14,0,0,1,1.92,3.6,4.07,4.07,0,0,1-2.4,3.81,8,8,0,0,1-3.31.72c-.17-.07-.17-.43,0-.48,2.59-.48,3.53-1.94,3.53-4a3.54,3.54,0,0,0-3.86-3.84c-1.27,0-1.3.1-1.3.87Z" transform="translate(-43.1 -42.95)"/><path class="cls-3" d="M221.23,54.54c0-2.52,0-2.91-1.44-3l-.6-.05c-.15-.1-.1-.53,0-.6,1.18.05,2,.07,3,.07s1.75,0,2.78-.07a.47.47,0,0,1,.05.6l-.46.05c-1.39.14-1.44.5-1.44,3V57.3c0,.46.05.91.32.91a1.39,1.39,0,0,0,.67-.26c.33-.29,1-.92,1.22-1.16L228,54.23c.46-.44,1.64-1.66,1.88-2a.72.72,0,0,0,.17-.39c0-.09-.1-.17-.41-.24l-.65-.14a.39.39,0,0,1,.05-.6c.84.05,1.8.07,2.64.07s1.65,0,2.37-.07a.45.45,0,0,1,.05.6,6,6,0,0,0-2.23.67,23.71,23.71,0,0,0-3.36,2.78l-2.16,2c-.34.34-.55.56-.55.75s.14.36.45.74c2.28,2.62,4.13,4.78,6,6.74a2.81,2.81,0,0,0,1.83,1l.46.07a.42.42,0,0,1-.05.6c-.62,0-1.28-.07-2.41-.07-1,0-1.82,0-2.92.07-.17,0-.24-.46-.1-.6l.55-.1c.34,0,.58-.12.58-.23s-.17-.34-.34-.56c-.46-.57-1.08-1.22-2-2.25L225.93,61c-1.37-1.54-1.75-2-2.33-2-.36,0-.41.31-.41,1.15v3.1c0,2.52.05,2.85,1.4,3l.64.07c.15.1.1.53,0,.6-1.18,0-2-.07-2.93-.07s-1.8,0-2.79.07a.46.46,0,0,1,0-.6l.48-.07c1.27-.19,1.32-.48,1.32-3Z" transform="translate(-43.1 -42.95)"/><path class="cls-3" d="M237.7,54.59c0-2.55,0-3-1.47-3.07l-.59-.05c-.15-.1-.1-.53,0-.6,1.2.05,2,.07,3,.07s1.77,0,3-.07c.15.07.2.5,0,.6l-.6.05c-1.42.11-1.46.52-1.46,3.07v8.54c0,2.55,0,2.88,1.46,3.05l.6.07c.15.1.1.53,0,.6-1.2,0-2-.07-3-.07s-1.74,0-2.93.07a.45.45,0,0,1-.05-.6l.5-.07c1.42-.17,1.47-.5,1.47-3.05Z" transform="translate(-43.1 -42.95)"/><path class="cls-3" d="M258.46,62.7c0,.72,0,3.57.07,4.2a.43.43,0,0,1-.45.26c-.29-.4-1-1.24-3.08-3.62l-5.56-6.34c-.65-.74-2.28-2.71-2.79-3.24h0a5.82,5.82,0,0,0-.13,1.56v5.24c0,1.12,0,4.24.44,5,.14.27.62.41,1.22.46l.74.07a.44.44,0,0,1,0,.6c-1.08,0-1.92-.07-2.81-.07s-1.66,0-2.5.07a.46.46,0,0,1-.05-.6l.65-.07c.55-.07.94-.22,1.06-.48a22.87,22.87,0,0,0,.31-4.94V53.82a2.19,2.19,0,0,0-.53-1.73,2.68,2.68,0,0,0-1.49-.58l-.4,0c-.15-.15-.15-.51,0-.6,1,.07,2.28.07,2.72.07a7.45,7.45,0,0,0,1.1-.07c.48,1.22,3.31,4.39,4.1,5.28l2.33,2.61c1.66,1.85,2.83,3.19,4,4.35h.05a2.35,2.35,0,0,0,.1-1V57c0-1.12,0-4.24-.48-5-.15-.21-.53-.36-1.49-.48l-.41,0c-.17-.15-.14-.53.05-.6,1.1.05,1.92.07,2.83.07s1.66,0,2.47-.07a.43.43,0,0,1,.05.6l-.34,0c-.76.12-1.24.32-1.34.51-.41.86-.36,3.84-.36,4.94Z" transform="translate(-43.1 -42.95)"/><path class="cls-3" d="M264.76,67.16a7.4,7.4,0,0,1-3.74-.89,11,11,0,0,1-.65-3.35c.12-.17.48-.22.58-.08.36,1.23,1.34,3.58,4.12,3.58a2.72,2.72,0,0,0,3-2.76,3.6,3.6,0,0,0-2-3.36l-2.28-1.49a5.12,5.12,0,0,1-2.6-4.13c0-2.28,1.78-4.12,4.9-4.12a9.09,9.09,0,0,1,2.23.31,3.54,3.54,0,0,0,.84.14,10.39,10.39,0,0,1,.43,2.93.48.48,0,0,1-.6.07,3.14,3.14,0,0,0-3.26-2.71c-2.35,0-2.86,1.56-2.86,2.66a3.82,3.82,0,0,0,2,3l1.93,1.19c1.51.94,3,2.33,3,4.61,0,2.64-2,4.44-5.12,4.44" transform="translate(-43.1 -42.95)"/></g></svg>