<svg xmlns="http://www.w3.org/2000/svg" width="294.409" height="76.822" viewBox="0 0 294.409 76.822"><defs><style>.a{fill:#fff;}</style></defs><g transform="translate(0 0)"><path class="a" d="M23.725,14.318c1.779-3.56.724-8.783-2.808-10.8,1.712,2.769-1.193,7.777-2.9,7.182,1.328-1.9,1-3.488.5-4.278A7.807,7.807,0,0,1,17,9.279c-2.515,3.218-2.436,5.835.909,6.988,3.95,1.365,3.27,4.1,2.9,5.066,6.089-2.878,9.068-8.417,5.971-13.684.725,2.865-1.462,7.177-3.049,6.67" transform="translate(4.559 1.052)"/><path class="a" d="M50.259,2.593l-.043-.026-.26-.06a114.222,114.222,0,0,0-47.64.008l-.039.009-.036.008A2.941,2.941,0,0,0,0,5.389L0,9.632c0,30.595,18.93,43,24.731,46.08a3.036,3.036,0,0,0,1.425.373,2.958,2.958,0,0,0,1.417-.377C33.362,52.641,52.3,40.227,52.3,9.631V5.389a2.943,2.943,0,0,0-2.04-2.8M8.4,37.01c-.246-.435-.487-.882-.725-1.336a23.856,23.856,0,0,1,8.368-6.626,23.358,23.358,0,0,0-6.05,7.961ZM16.3,47h-.327a45.98,45.98,0,0,1-5.616-6.825c.195-.548.4-1.089.622-1.611h6.358A56.524,56.524,0,0,0,16.3,47M11.7,37.01c2.41-4.706,6.053-8.167,10.29-9.559-1.79,2.042-3.275,5.372-4.294,9.559Zm13.67,17.1A40.1,40.1,0,0,1,17.8,48.724c0-.053,0-.108,0-.162h7.569Zm0-7.1H17.863a54.7,54.7,0,0,1,1.05-8.436h6.458Zm0-9.995H19.279c1.455-5.774,3.77-9.461,6.092-10.141Zm1.559,17.1v-5.55H34.5c0,.055,0,.11,0,.165a40.2,40.2,0,0,1-7.573,5.385m6.457-15.542A54.534,54.534,0,0,1,34.438,47H26.93V38.569ZM26.93,37.01V26.87c2.322.682,4.636,4.368,6.091,10.14Zm3.38-9.561c4.235,1.394,7.88,4.854,10.29,9.561h-6c-1.02-4.187-2.506-7.518-4.294-9.561M36.325,47H36a56.875,56.875,0,0,0-1.035-8.436h6.358c.225.524.427,1.065.622,1.615A46.057,46.057,0,0,1,36.325,47M43.9,37.01h-1.6a23.3,23.3,0,0,0-6.045-7.959,23.83,23.83,0,0,1,8.367,6.623q-.355.682-.724,1.336M50.589,9.631a56.066,56.066,0,0,1-5.2,24.518,25.155,25.155,0,0,0-19.238-8.955h-.005A25.157,25.157,0,0,0,6.909,34.147a56.1,56.1,0,0,1-5.2-24.516l0-4.242A1.226,1.226,0,0,1,2.64,4.2l.034-.009A112.388,112.388,0,0,1,49.6,4.182l.017.008a1.221,1.221,0,0,1,.974,1.2Z" transform="translate(0 0)"/><path class="a" d="M53.3,10.256c0-4.1-.368-4.547-2.55-4.733l-.922-.073c-.222-.148-.148-.813.074-.924,2.142.073,3.4.11,4.951.11,1.48,0,2.736-.038,4.215-.11.221.11.295.776.074.924l-.555.073c-2.18.3-2.254.812-2.254,4.733V23.969c0,2.918-.149,5.468-.85,7.168A8.03,8.03,0,0,1,48.2,36.461c-.442,0-1.588-.038-1.588-.777,0-.629.552-1.7,1.329-1.7a4.513,4.513,0,0,1,1.369.223,5.719,5.719,0,0,0,1.551.259,1.579,1.579,0,0,0,1.48-.961c.85-1.738.959-7.281.959-9.278Z" transform="translate(13.946 1.355)"/><path class="a" d="M56.194,18.171a10.78,10.78,0,0,1,11.1-11.007c7.2,0,10.82,5.207,10.82,10.695A10.645,10.645,0,0,1,67.294,28.74c-6.921,0-11.1-4.956-11.1-10.569m18.8.655c0-5.143-2.275-10.695-8.23-10.695-3.244,0-7.452,2.215-7.452,9.044,0,4.612,2.245,10.6,8.386,10.6,3.743,0,7.3-2.806,7.3-8.95" transform="translate(16.813 2.144)"/><path class="a" d="M80.1,18.077c-1.5,0-1.559.064-1.559,1v4.394c0,3.274.156,3.71,1.9,3.9l.9.095c.188.123.125.685-.061.778-1.685-.064-2.744-.094-3.961-.094-1.339,0-2.4.064-3.616.094a.607.607,0,0,1-.064-.778l.53-.095c1.746-.312,1.81-.624,1.81-3.9V12.247c0-3.274-.218-3.8-1.84-3.929l-.812-.062c-.187-.125-.123-.686.064-.78,1.528.03,2.588.094,3.927.094,1.217,0,2.276-.03,3.617-.094.187.094.251.655.062.78l-.592.062c-1.807.187-1.87.655-1.87,3.929v3.587c0,.965.062,1,1.559,1h8.918c1.5,0,1.56-.032,1.56-1V12.247c0-3.274-.064-3.742-1.9-3.929l-.591-.062c-.188-.125-.127-.686.061-.78,1.433.064,2.494.094,3.773.094,1.216,0,2.276-.03,3.679-.094.184.094.248.655.064.78l-.657.062c-1.806.187-1.87.655-1.87,3.929V23.472c0,3.274.064,3.679,1.87,3.9l.748.095c.187.123.125.685-.064.778-1.494-.064-2.554-.094-3.77-.094-1.278,0-2.4.03-3.773.094a.6.6,0,0,1-.061-.778l.591-.095c1.9-.312,1.9-.624,1.9-3.9V19.078c0-.937-.064-1-1.56-1Z" transform="translate(21.908 2.237)"/><path class="a" d="M111.594,22.848c0,.937,0,4.646.091,5.455a.558.558,0,0,1-.591.343c-.373-.527-1.278-1.619-3.991-4.707l-7.234-8.232c-.841-.967-2.962-3.523-3.617-4.207h-.06a7.744,7.744,0,0,0-.159,2.024v6.8c0,1.464.031,5.519.561,6.452.188.346.812.531,1.592.594l.967.095a.57.57,0,0,1-.064.778c-1.4-.062-2.494-.094-3.647-.094-1.311,0-2.151.031-3.243.094a.579.579,0,0,1-.064-.778l.843-.095c.716-.094,1.215-.281,1.373-.624.433-1.121.4-4.925.4-6.422V11.313a2.855,2.855,0,0,0-.685-2.245,3.383,3.383,0,0,0-1.934-.75l-.53-.061a.546.546,0,0,1,.064-.781c1.31.094,2.961.094,3.522.094a9.891,9.891,0,0,0,1.436-.094c.622,1.592,4.3,5.707,5.332,6.861l3.025,3.4c2.149,2.4,3.677,4.147,5.143,5.644h.064a3.141,3.141,0,0,0,.125-1.31V15.4c0-1.465-.031-5.518-.625-6.454-.187-.281-.685-.468-1.933-.624l-.53-.061c-.218-.187-.186-.687.062-.781,1.434.064,2.494.094,3.681.094,1.339,0,2.149-.03,3.209-.094a.546.546,0,0,1,.064.781l-.437.061c-1,.156-1.621.407-1.746.655-.53,1.122-.466,4.989-.466,6.423Z" transform="translate(27.368 2.237)"/><path class="a" d="M114.618,28.739a9.722,9.722,0,0,1-4.864-1.152,14.323,14.323,0,0,1-.843-4.364c.156-.221.625-.282.75-.094.466,1.588,1.745,4.646,5.362,4.646a3.543,3.543,0,0,0,3.9-3.586c0-1.373-.279-2.9-2.558-4.367L113.4,17.889c-1.559-1.028-3.368-2.806-3.368-5.362,0-2.962,2.309-5.362,6.361-5.362a12.139,12.139,0,0,1,2.9.4,4.06,4.06,0,0,0,1.087.188,13.57,13.57,0,0,1,.564,3.8c-.125.188-.624.281-.78.095-.405-1.5-1.247-3.525-4.242-3.525-3.056,0-3.71,2.027-3.71,3.464,0,1.806,1.5,3.115,2.652,3.834l2.494,1.558c1.964,1.216,3.9,3.025,3.9,5.987,0,3.43-2.588,5.767-6.64,5.767" transform="translate(32.585 2.144)"/><path class="a" d="M134.537,17.094c-1.773,0-1.847.071-1.847,1.18v5.212c0,3.879.183,4.4,2.253,4.621l1.074.112c.221.147.147.812-.077.92-1.994-.073-3.251-.108-4.691-.108-1.592,0-2.848.073-4.289.108a.708.708,0,0,1-.074-.92l.628-.112c2.07-.372,2.144-.742,2.144-4.621V10.18c0-3.881-.259-4.509-2.18-4.656l-.961-.074c-.221-.147-.147-.813.074-.924,1.811.036,3.067.11,4.659.11,1.441,0,2.7-.036,4.286-.11.222.11.3.777.073.924l-.7.074c-2.141.223-2.215.776-2.215,4.656v4.251c0,1.146.074,1.181,1.847,1.181h10.572c1.773,0,1.847-.035,1.847-1.181V10.18c0-3.881-.074-4.433-2.257-4.656L144,5.45c-.221-.147-.147-.813.077-.924,1.7.074,2.956.11,4.471.11,1.442,0,2.7-.036,4.363-.11.221.11.3.777.073.924l-.776.074c-2.142.223-2.218.776-2.218,4.656V23.486c0,3.879.075,4.361,2.218,4.621l.887.112c.221.147.148.812-.075.92-1.772-.073-3.03-.108-4.472-.108-1.515,0-2.844.035-4.471.108a.711.711,0,0,1-.077-.92l.7-.112c2.257-.372,2.257-.742,2.257-4.621V18.274c0-1.108-.074-1.18-1.847-1.18Z" transform="translate(37.812 1.354)"/><path class="a" d="M146.76,18.171a10.781,10.781,0,0,1,11.1-11.007c7.2,0,10.821,5.207,10.821,10.695A10.645,10.645,0,0,1,157.859,28.74c-6.919,0-11.1-4.956-11.1-10.569m18.8.655c0-5.143-2.274-10.695-8.233-10.695-3.239,0-7.45,2.215-7.45,9.044,0,4.612,2.245,10.6,8.388,10.6,3.742,0,7.295-2.806,7.295-8.95" transform="translate(43.909 2.144)"/><path class="a" d="M169.194,23.472c0,3.274.064,3.679,2.058,3.9l.842.094a.605.605,0,0,1-.062.78c-1.777-.064-2.8-.094-4.053-.094-1.308,0-2.431.03-3.8.094a.6.6,0,0,1-.061-.78l.655-.094c1.806-.248,1.87-.624,1.87-3.9v-11.5c0-2.652-.064-3.182-1.467-3.338L164.051,8.5a.518.518,0,0,1,.064-.778,48.844,48.844,0,0,1,6.171-.251,11.256,11.256,0,0,1,5.988,1.249,5.386,5.386,0,0,1,2.494,4.676,5.283,5.283,0,0,1-3.118,4.959,10.529,10.529,0,0,1-4.3.934c-.218-.091-.218-.56-.03-.621,3.368-.625,4.582-2.528,4.582-5.24,0-3.026-1.776-4.988-5.019-4.988-1.653,0-1.685.122-1.685,1.123Z" transform="translate(49.038 2.237)"/><path class="a" d="M178.6,12.247c0-3.274-.064-3.773-1.87-3.927l-.782-.062c-.186-.126-.122-.687.064-.781,1.528.064,2.524.094,3.927.094,1.216,0,2.276-.03,3.618-.094.186.094.249.655.061.781l-.591.062c-1.808.186-1.872.653-1.872,3.927v3.588c0,.591.064,1.182.408,1.182a1.762,1.762,0,0,0,.87-.343c.437-.373,1.249-1.185,1.592-1.5l3.367-3.335c.591-.563,2.12-2.153,2.431-2.588a.926.926,0,0,0,.221-.5c0-.123-.125-.217-.531-.311l-.842-.187a.522.522,0,0,1,.061-.781c1.091.064,2.34.094,3.43.094s2.153-.03,3.086-.094a.575.575,0,0,1,.064.781,7.7,7.7,0,0,0-2.9.873,31.07,31.07,0,0,0-4.368,3.617L185.239,15.4c-.437.439-.717.718-.717.967,0,.221.187.469.594.967,2.961,3.4,5.362,6.2,7.8,8.762a3.615,3.615,0,0,0,2.375,1.28l.6.094a.541.541,0,0,1-.064.78c-.809-.064-1.664-.095-3.131-.095-1.277,0-2.371.031-3.8.095-.218-.064-.312-.6-.125-.78l.716-.127c.439-.061.748-.155.748-.309,0-.188-.218-.437-.437-.718-.594-.748-1.4-1.59-2.588-2.931l-2.494-2.806c-1.776-1.994-2.276-2.618-3.024-2.618-.466,0-.53.405-.53,1.5v4.022c0,3.273.064,3.709,1.808,3.9l.843.094c.184.125.125.685-.064.78-1.528-.064-2.588-.095-3.8-.095-1.278,0-2.337.031-3.616.095a.6.6,0,0,1-.064-.78l.625-.094c1.651-.249,1.715-.625,1.715-3.9Z" transform="translate(52.608 2.237)"/><path class="a" d="M195.078,12.309c0-3.305-.061-3.837-1.9-3.991l-.777-.062c-.187-.126-.126-.686.061-.781,1.559.064,2.619.095,3.929.095,1.249,0,2.309-.031,3.866-.095.188.095.249.655.064.781l-.781.062c-1.84.155-1.9.686-1.9,3.991v11.1c0,3.306.061,3.743,1.9,3.961l.781.094c.186.125.125.685-.064.78-1.558-.064-2.618-.095-3.866-.095-1.31,0-2.251.031-3.809.095a.606.606,0,0,1-.061-.78l.657-.094c1.842-.218,1.9-.655,1.9-3.961Z" transform="translate(57.529 2.237)"/><path class="a" d="M219.827,22.848c0,.937,0,4.646.1,5.455a.564.564,0,0,1-.594.343c-.373-.527-1.278-1.619-3.991-4.707L208.1,15.708c-.841-.967-2.962-3.523-3.617-4.207h-.061a7.818,7.818,0,0,0-.157,2.024v6.8c0,1.464.031,5.519.561,6.452.188.346.812.531,1.592.594l.967.095a.572.572,0,0,1-.064.778c-1.4-.062-2.494-.094-3.647-.094-1.31,0-2.151.031-3.243.094a.576.576,0,0,1-.064-.778l.843-.095c.716-.094,1.215-.281,1.372-.624.437-1.121.4-4.925.4-6.422V11.313a2.854,2.854,0,0,0-.685-2.245,3.383,3.383,0,0,0-1.934-.75l-.53-.061a.546.546,0,0,1,.064-.781c1.31.094,2.961.094,3.522.094a9.89,9.89,0,0,0,1.436-.094c.625,1.592,4.3,5.707,5.329,6.861l3.027,3.4c2.151,2.4,3.677,4.147,5.143,5.644h.064a3.141,3.141,0,0,0,.125-1.31V15.4c0-1.465-.031-5.518-.625-6.454-.187-.281-.685-.468-1.931-.624l-.53-.061c-.221-.187-.188-.687.06-.781,1.434.064,2.494.094,3.679.094,1.343,0,2.153-.03,3.21-.094a.546.546,0,0,1,.064.781l-.437.061c-1,.156-1.621.407-1.746.655-.53,1.122-.469,4.989-.469,6.423Z" transform="translate(59.751 2.237)"/><path class="a" d="M222.814,28.739a9.745,9.745,0,0,1-4.867-1.152,14.483,14.483,0,0,1-.843-4.364c.158-.221.628-.282.75-.094.469,1.588,1.747,4.646,5.364,4.646a3.543,3.543,0,0,0,3.9-3.586c0-1.373-.282-2.9-2.558-4.367l-2.96-1.934c-1.56-1.028-3.369-2.806-3.369-5.362,0-2.962,2.306-5.362,6.361-5.362a12.139,12.139,0,0,1,2.9.4,4.076,4.076,0,0,0,1.087.188,13.572,13.572,0,0,1,.564,3.8c-.127.188-.624.281-.781.095-.4-1.5-1.246-3.525-4.238-3.525-3.058,0-3.713,2.027-3.713,3.464,0,1.806,1.5,3.115,2.649,3.834l2.5,1.558c1.964,1.216,3.9,3.025,3.9,5.987,0,3.43-2.588,5.767-6.64,5.767" transform="translate(64.955 2.144)"/><path class="a" d="M68.242,36.224c0-1.193-.064-1.5-.79-1.563l-.514-.049a.257.257,0,0,1,.016-.4c.869-.081,1.966-.129,3.465-.129a6.119,6.119,0,0,1,2.708.452,2.116,2.116,0,0,1,1.226,2.014,2.334,2.334,0,0,1-1.645,2.209c0,.161.13.209.305.24a2.668,2.668,0,0,1,2.161,2.693c0,1.868-1.386,3.126-4.287,3.126-.468,0-1.256-.048-1.934-.048-.709,0-1.256.031-1.853.048a.312.312,0,0,1-.032-.4l.29-.049c.855-.144.886-.322.886-2.012Zm1.321,2.144c0,.452.018.483.839.452,1.643-.065,2.531-.548,2.531-2.063a2.13,2.13,0,0,0-2.4-2.176,1.984,1.984,0,0,0-.742.1c-.16.048-.226.129-.226.42Zm0,3.739a3.151,3.151,0,0,0,.34,1.758,1.561,1.561,0,0,0,1.272.45c1.436,0,2.531-.644,2.531-2.255,0-1.275-.646-2.756-3.206-2.756-.87,0-.937.1-.937.418Z" transform="translate(20 10.196)"/><path class="a" d="M76.392,36.546c0-1.692-.032-1.95-1.048-2.029l-.4-.034c-.1-.064-.064-.353.032-.4.9.031,1.451.048,2.1.048.629,0,1.177-.017,1.983-.048.1.048.129.338.032.4l-.388.034c-.95.079-.981.338-.981,2.029v5.609c0,1.016.048,1.436.337,1.741.178.178.485.37,1.758.37,1.371,0,1.708-.064,1.967-.209a3.43,3.43,0,0,0,1.063-1.6c.1-.081.4-.016.4.1a12.991,12.991,0,0,1-.676,2.255c-.822-.031-2.355-.048-4.014-.048H77.068c-.677,0-1.191.017-2.1.048a.312.312,0,0,1-.032-.4l.485-.049c.934-.1.967-.322.967-2.014Z" transform="translate(22.404 10.197)"/><path class="a" d="M82.355,39.608a5.571,5.571,0,0,1,5.737-5.689,5.3,5.3,0,0,1,5.592,5.528,5.5,5.5,0,0,1-5.592,5.624,5.426,5.426,0,0,1-5.737-5.463m9.718.339c0-2.659-1.176-5.529-4.255-5.529-1.675,0-3.852,1.145-3.852,4.674,0,2.385,1.161,5.48,4.337,5.48,1.933,0,3.77-1.451,3.77-4.625" transform="translate(24.64 10.148)"/><path class="a" d="M92.833,39.608a5.57,5.57,0,0,1,5.737-5.689,5.3,5.3,0,0,1,5.592,5.528,5.5,5.5,0,0,1-5.592,5.624,5.426,5.426,0,0,1-5.737-5.463m9.718.339c0-2.659-1.177-5.529-4.255-5.529-1.677,0-3.852,1.145-3.852,4.674,0,2.385,1.159,5.48,4.335,5.48,1.933,0,3.772-1.451,3.772-4.625" transform="translate(27.775 10.148)"/><path class="a" d="M108.844,40.462c.37.757.726,1.5,1.111,2.209h.034c.435-.757.837-1.6,1.241-2.418l1.515-3.078a9.423,9.423,0,0,0,1.225-3.095c.548.048.886.048,1.208.048.4,0,.935-.017,1.434-.048a.336.336,0,0,1,.017.4l-.339.034c-1.016.1-1.143.4-1.128,1.532.032,1.707.048,4.689.178,7.009.048.807.031,1.242.789,1.306l.516.049a.3.3,0,0,1-.032.4c-.66-.032-1.32-.048-1.9-.048-.564,0-1.29.016-1.95.048a.3.3,0,0,1-.032-.4l.468-.049c.789-.081.789-.338.789-1.369l-.048-6.722h-.031c-.113.178-.726,1.467-1.048,2.1l-1.436,2.821c-.724,1.417-1.45,2.932-1.74,3.674a.189.189,0,0,1-.161.065.2.2,0,0,1-.146-.065c-.273-.855-1.046-2.433-1.417-3.223l-1.451-3.11c-.338-.742-.677-1.58-1.032-2.32h-.031c-.065,1-.114,1.933-.162,2.869-.048.982-.112,2.416-.112,3.787,0,1.193.1,1.45.725,1.5l.612.049c.113.1.1.355-.016.4-.547-.032-1.177-.048-1.789-.048-.516,0-1.1.016-1.643.048a.32.32,0,0,1-.034-.4l.356-.049c.676-.1.9-.192,1-1.321.1-1.064.178-1.95.274-3.545.081-1.337.147-2.708.178-3.595.032-1.015-.1-1.258-1.08-1.385l-.259-.034a.3.3,0,0,1,.066-.4c.482.031.87.048,1.272.048.37,0,.806,0,1.338-.048a6.15,6.15,0,0,0,.838,2.659Z" transform="translate(30.807 10.196)"/><path class="a" d="M116.49,36.224c0-1.193-.062-1.5-.789-1.563l-.514-.049a.257.257,0,0,1,.014-.4c.87-.081,1.967-.129,3.466-.129a6.119,6.119,0,0,1,2.707.452,2.115,2.115,0,0,1,1.225,2.014,2.333,2.333,0,0,1-1.643,2.209c0,.161.129.209.3.24a2.668,2.668,0,0,1,2.161,2.693c0,1.868-1.386,3.126-4.286,3.126-.468,0-1.258-.048-1.934-.048-.711,0-1.258.031-1.854.048a.312.312,0,0,1-.032-.4l.291-.049c.854-.144.885-.322.885-2.012Zm1.323,2.144c0,.452.017.483.838.452,1.643-.065,2.531-.548,2.531-2.063a2.129,2.129,0,0,0-2.4-2.176,1.972,1.972,0,0,0-.741.1c-.161.048-.226.129-.226.42Zm0,3.739a3.162,3.162,0,0,0,.339,1.758,1.563,1.563,0,0,0,1.272.45c1.436,0,2.531-.644,2.531-2.255,0-1.275-.646-2.756-3.206-2.756-.87,0-.935.1-.935.418Z" transform="translate(34.436 10.196)"/><path class="a" d="M124.644,36.546c0-1.676-.031-1.918-.982-2.029l-.259-.034c-.1-.064-.064-.353.032-.4.694.031,1.241.048,1.9.048h3.031a21.752,21.752,0,0,0,2.176-.048,18.3,18.3,0,0,1,.257,2.142.313.313,0,0,1-.4.032c-.243-.757-.388-1.321-1.226-1.53a7.573,7.573,0,0,0-1.563-.1h-1.16c-.483,0-.483.032-.483.646V38.5c0,.452.048.452.533.452h.933a5.927,5.927,0,0,0,1.371-.1c.194-.064.308-.161.387-.564l.129-.66a.316.316,0,0,1,.418.016c0,.387-.064,1.016-.064,1.628,0,.581.064,1.193.064,1.547a.316.316,0,0,1-.418.016l-.146-.629a.685.685,0,0,0-.5-.612,5.367,5.367,0,0,0-1.242-.081H126.5c-.485,0-.533.016-.533.435v2.272c0,.854.048,1.4.307,1.676.192.194.53.37,1.949.37a4.737,4.737,0,0,0,2.063-.24,4.063,4.063,0,0,0,1.145-1.564.3.3,0,0,1,.4.113,13.981,13.981,0,0,1-.725,2.24c-1.451-.031-2.886-.048-4.32-.048h-1.451c-.692,0-1.241.017-2.19.048a.311.311,0,0,1-.032-.4l.531-.049c.919-.081,1-.322,1-2.014Z" transform="translate(36.817 10.197)"/><path class="a" d="M132.469,36.563c0-1.532-.048-1.806-.708-1.886l-.516-.064a.269.269,0,0,1,.016-.4c.9-.079,2.015-.129,3.594-.129a5.712,5.712,0,0,1,2.692.483,2.4,2.4,0,0,1,1.338,2.257,2.982,2.982,0,0,1-2.015,2.692c-.079.1,0,.257.081.387a17.361,17.361,0,0,0,3.24,4.287,1.93,1.93,0,0,0,1.111.45.135.135,0,0,1,.017.226,2.512,2.512,0,0,1-.709.082c-1.371,0-2.192-.4-3.336-2.032-.42-.6-1.078-1.707-1.579-2.433a1.152,1.152,0,0,0-1.145-.516c-.726,0-.759.014-.759.355v2.032c0,1.689.032,1.885.968,2.012l.339.051a.313.313,0,0,1-.034.4c-.725-.031-1.273-.048-1.918-.048-.677,0-1.256.017-2.015.048a.308.308,0,0,1-.031-.4l.4-.051c.935-.112.967-.323.967-2.012Zm1.321,2.3a1.244,1.244,0,0,0,.049.531c.048.048.291.081,1.113.081a2.692,2.692,0,0,0,1.659-.42,2.312,2.312,0,0,0,.805-2,2.374,2.374,0,0,0-2.579-2.481c-1,0-1.048.064-1.048.516Z" transform="translate(39.206 10.196)"/><path class="a" d="M149,43.169c0,.644.1,1.032.388,1.145a.133.133,0,0,1-.017.194,3.545,3.545,0,0,0-.79.146,12.645,12.645,0,0,1-2.885.418,6.71,6.71,0,0,1-4.915-1.789,5.076,5.076,0,0,1-1.482-3.659,5.535,5.535,0,0,1,1.449-3.82,6.68,6.68,0,0,1,5.111-1.885,9.711,9.711,0,0,1,2.046.24,4.3,4.3,0,0,0,1,.147,18.1,18.1,0,0,0,.242,2.337c-.048.127-.338.144-.435.048-.451-1.741-1.659-2.289-3.3-2.289-3.126,0-4.5,2.224-4.5,4.641,0,3.095,1.6,5.528,4.834,5.528,1,0,1.6-.209,1.773-.483a1.781,1.781,0,0,0,.161-.919v-.644c0-1.354-.048-1.45-1.046-1.563l-.711-.082a.268.268,0,0,1,0-.4c.466.031,1.355.048,2.3.048.629,0,1.177-.017,1.71-.048a.28.28,0,0,1,.014.4l-.257.034c-.676.079-.694.531-.694,1.354Z" transform="translate(41.676 10.148)"/><path class="a" d="M156.207,45.071a5.025,5.025,0,0,1-2.515-.6,7.47,7.47,0,0,1-.435-2.255c.081-.113.325-.147.387-.048a2.932,2.932,0,0,0,2.771,2.4,1.829,1.829,0,0,0,2.015-1.853,2.421,2.421,0,0,0-1.321-2.257l-1.53-1a3.445,3.445,0,0,1-1.741-2.772c0-1.532,1.193-2.772,3.288-2.772a6.212,6.212,0,0,1,1.5.209,2.139,2.139,0,0,0,.565.1,7.09,7.09,0,0,1,.29,1.967c-.064.1-.322.144-.4.048a2.109,2.109,0,0,0-2.19-1.821,1.688,1.688,0,0,0-1.918,1.79,2.535,2.535,0,0,0,1.369,1.981l1.29.806a3.633,3.633,0,0,1,2.015,3.095c0,1.773-1.339,2.982-3.434,2.982" transform="translate(45.853 10.148)"/><path class="a" d="M161.7,35.288a6.946,6.946,0,0,1,4.351-1.369,12.375,12.375,0,0,1,2.853.387,1.2,1.2,0,0,0,.451.064c.014.372.1,1.386.226,2.37a.342.342,0,0,1-.437.032c-.24-1.1-.968-2.354-3.3-2.354-2.466,0-4.559,1.564-4.559,4.9,0,3.384,2.142,5.254,4.784,5.254a3.433,3.433,0,0,0,3.37-2.3.337.337,0,0,1,.418.065,6.088,6.088,0,0,1-.773,2.207,3.2,3.2,0,0,0-.564.161,9.464,9.464,0,0,1-2.548.37,7.044,7.044,0,0,1-4.012-1.08,5.2,5.2,0,0,1-2.288-4.432,5.351,5.351,0,0,1,2.031-4.272" transform="translate(47.771 10.148)"/><path class="a" d="M172.4,39.56c-.774,0-.805.031-.805.514v2.274c0,1.692.079,1.918.982,2.014l.468.049c.1.064.065.355-.031.4-.87-.03-1.419-.048-2.048-.048-.694,0-1.242.031-1.871.048a.311.311,0,0,1-.03-.4l.273-.049c.9-.161.934-.322.934-2.014v-5.8c0-1.692-.113-1.966-.951-2.031l-.418-.032c-.1-.064-.064-.355.033-.4.789.017,1.337.048,2.031.048.629,0,1.177-.016,1.87-.048.1.048.13.339.031.4l-.305.032c-.935.1-.967.339-.967,2.031V38.4c0,.5.031.517.805.517h4.61c.774,0,.805-.017.805-.517V36.546c0-1.692-.031-1.934-.983-2.031l-.305-.032c-.1-.064-.065-.355.031-.4.742.032,1.289.048,1.951.048.628,0,1.174-.016,1.9-.048.1.048.13.339.032.4l-.338.032c-.935.1-.968.339-.968,2.031v5.8c0,1.692.033,1.9.968,2.014l.387.049c.1.064.062.355-.034.4-.774-.03-1.321-.048-1.949-.048-.663,0-1.242.018-1.951.048a.312.312,0,0,1-.031-.4l.305-.049c.983-.161.983-.322.983-2.014V40.074c0-.483-.031-.514-.805-.514Z" transform="translate(50.518 10.196)"/><path class="a" d="M179.224,39.608a5.57,5.57,0,0,1,5.737-5.689,5.3,5.3,0,0,1,5.592,5.528,5.5,5.5,0,0,1-5.592,5.624,5.426,5.426,0,0,1-5.737-5.463m9.718.339c0-2.659-1.177-5.529-4.255-5.529-1.677,0-3.852,1.145-3.852,4.674,0,2.385,1.159,5.48,4.335,5.48,1.933,0,3.772-1.451,3.772-4.625" transform="translate(53.622 10.148)"/><path class="a" d="M189.7,39.608a5.571,5.571,0,0,1,5.737-5.689,5.3,5.3,0,0,1,5.592,5.528,5.5,5.5,0,0,1-5.592,5.624,5.426,5.426,0,0,1-5.737-5.463m9.718.339c0-2.659-1.176-5.529-4.255-5.529-1.675,0-3.852,1.145-3.852,4.674,0,2.385,1.161,5.48,4.337,5.48,1.933,0,3.77-1.451,3.77-4.625" transform="translate(56.756 10.148)"/><path class="a" d="M201.47,36.546c0-1.692-.032-1.95-1.048-2.029l-.4-.034c-.1-.064-.064-.353.032-.4.9.031,1.45.048,2.1.048.628,0,1.176-.017,1.983-.048.1.048.129.338.031.4l-.387.034c-.951.079-.982.338-.982,2.029v5.609c0,1.016.049,1.436.338,1.741.178.178.483.37,1.757.37,1.371,0,1.708-.064,1.967-.209a3.44,3.44,0,0,0,1.064-1.6c.1-.081.4-.016.4.1a12.989,12.989,0,0,1-.676,2.255c-.822-.031-2.354-.048-4.013-.048h-1.482c-.677,0-1.193.017-2.1.048a.312.312,0,0,1-.032-.4l.485-.049c.934-.1.967-.322.967-2.014Z" transform="translate(59.826 10.197)"/><path class="a" d="M84.356,52.764a6.122,6.122,0,0,1-1.708,3.657,3.093,3.093,0,0,1-2.3,1.113c-1.032,0-1.708-.757-1.612-2.145a6.076,6.076,0,0,1,1.757-3.609,3.145,3.145,0,0,1,2.224-1.048c1.145,0,1.71.854,1.645,2.032m-2.934-.774a9.3,9.3,0,0,0-1.611,4.03c-.034.563.192,1.032.66,1.032.355,0,.759-.147,1.273-.839a9.943,9.943,0,0,0,1.5-3.931c.016-.5-.081-1.065-.644-1.065-.324,0-.711.147-1.177.774" transform="translate(23.552 15.179)"/><path class="a" d="M88.088,52.694c-.1.274-.225.789-.418,1.5-.483,1.806-.919,3.353-1.436,5.127a6.367,6.367,0,0,1-1.272,2.594,3.006,3.006,0,0,1-1.936.87c-.869,0-1.176-.548-1.176-.79a.941.941,0,0,1,.372-.725.263.263,0,0,1,.372.064,1.936,1.936,0,0,0,1.224.661c.322,0,.661-.113,1.032-1.354.741-2.546,1.306-5.32,2.077-7.946H85.59a.4.4,0,0,1,.113-.6h1.386a9.823,9.823,0,0,1,1.8-3.835,3.263,3.263,0,0,1,2.579-1.338,1.181,1.181,0,0,1,1.242,1.064c0,.418-.435.919-.694.919-.146,0-.209-.146-.225-.259-.049-.886-.5-1.178-.9-1.178a1.675,1.675,0,0,0-1.16.872,12.035,12.035,0,0,0-1.5,3.756h2.015a.433.433,0,0,1-.162.6Z" transform="translate(24.489 14.039)"/><path class="a" d="M95.826,55.838c0,1.692.031,1.9,1.063,2.014l.435.049a.311.311,0,0,1-.031.4c-.919-.031-1.451-.048-2.1-.048-.678,0-1.256.017-1.967.048a.311.311,0,0,1-.031-.4l.338-.049c.934-.129.967-.322.967-2.014V49.89c0-1.371-.032-1.645-.757-1.724l-.579-.065a.27.27,0,0,1,.032-.4,25.653,25.653,0,0,1,3.191-.127,5.824,5.824,0,0,1,3.095.644,2.783,2.783,0,0,1,1.29,2.416,2.73,2.73,0,0,1-1.614,2.563,5.429,5.429,0,0,1-2.224.483c-.112-.048-.112-.29-.014-.322a2.506,2.506,0,0,0,2.368-2.708A2.376,2.376,0,0,0,96.7,48.07c-.855,0-.87.062-.87.579Z" transform="translate(27.852 14.233)"/><path class="a" d="M109.653,51.662a11.6,11.6,0,0,0-.307-3.335,1,1,0,0,0-.805-.339l-.4-.032a.29.29,0,0,1,.03-.386c.615.031,1.211.048,1.838.048.677,0,1.113-.017,1.692-.048a.276.276,0,0,1,.034.386l-.387.032a.944.944,0,0,0-.805.387,14.374,14.374,0,0,0-.226,3.287v1.821a5.618,5.618,0,0,1-1.128,3.852,4.248,4.248,0,0,1-3.079,1.176,4.588,4.588,0,0,1-3.014-.885c-.854-.709-1.258-1.886-1.258-3.8v-3.8c0-1.676-.031-1.95-.967-2.031l-.4-.032c-.1-.064-.064-.338.032-.386.805.031,1.354.048,2,.048.661,0,1.193-.017,1.984-.048.1.048.129.322.031.386l-.387.032c-.934.081-.967.355-.967,2.031V53.5c0,2.594.805,4.3,3.273,4.3,2.335,0,3.223-1.837,3.223-4.287Z" transform="translate(30.041 14.233)"/><path class="a" d="M111.8,49.713c0-1.193-.064-1.5-.79-1.563l-.514-.049a.257.257,0,0,1,.016-.4c.869-.081,1.966-.129,3.465-.129a6.119,6.119,0,0,1,2.708.452,2.116,2.116,0,0,1,1.226,2.014,2.334,2.334,0,0,1-1.645,2.209c0,.161.13.209.305.24a2.668,2.668,0,0,1,2.161,2.693c0,1.868-1.386,3.126-4.287,3.126-.468,0-1.256-.048-1.934-.048-.709,0-1.256.031-1.853.048a.312.312,0,0,1-.032-.4l.29-.049c.855-.144.886-.322.886-2.012Zm1.321,2.144c0,.452.018.483.839.452,1.643-.065,2.531-.548,2.531-2.063a2.13,2.13,0,0,0-2.4-2.176,1.984,1.984,0,0,0-.742.1c-.16.048-.226.129-.226.42Zm0,3.739a3.157,3.157,0,0,0,.34,1.759,1.564,1.564,0,0,0,1.272.448c1.436,0,2.531-.644,2.531-2.255,0-1.275-.646-2.756-3.206-2.756-.87,0-.937.1-.937.418Z" transform="translate(33.031 14.232)"/><path class="a" d="M119.947,50.035c0-1.692-.032-1.95-1.048-2.029l-.4-.034c-.1-.064-.064-.353.032-.4.9.031,1.451.048,2.1.048.629,0,1.177-.017,1.983-.048.1.048.129.338.032.4l-.388.034c-.95.079-.981.338-.981,2.029v5.609c0,1.016.048,1.436.336,1.741.178.178.485.37,1.758.37,1.371,0,1.708-.064,1.967-.209a3.43,3.43,0,0,0,1.063-1.6c.1-.081.4-.016.4.1a12.989,12.989,0,0,1-.676,2.255c-.822-.031-2.355-.048-4.014-.048h-1.482c-.677,0-1.191.017-2.1.048a.312.312,0,0,1-.032-.4l.485-.049c.934-.1.967-.322.967-2.014Z" transform="translate(35.435 14.233)"/><path class="a" d="M127.407,50.067c0-1.708-.031-1.983-.982-2.063l-.4-.032c-.1-.064-.065-.355.032-.4.8.032,1.352.048,2.029.048.646,0,1.191-.016,2-.048.1.048.129.339.031.4l-.4.032c-.95.081-.982.355-.982,2.063V55.8c0,1.708.032,1.934.982,2.046l.4.049c.1.064.066.355-.031.4-.808-.032-1.354-.048-2-.048-.677,0-1.225.016-2.029.048a.311.311,0,0,1-.032-.4l.4-.049c.951-.112.982-.338.982-2.046Z" transform="translate(37.687 14.232)"/><path class="a" d="M132.874,48.777a6.949,6.949,0,0,1,4.352-1.369,12.364,12.364,0,0,1,2.852.387,1.207,1.207,0,0,0,.452.064c.014.372.1,1.386.225,2.37a.34.34,0,0,1-.435.032c-.242-1.1-.968-2.354-3.3-2.354-2.466,0-4.56,1.564-4.56,4.9,0,3.384,2.144,5.254,4.785,5.254a3.435,3.435,0,0,0,3.37-2.3.337.337,0,0,1,.418.065,6.088,6.088,0,0,1-.773,2.207,3.2,3.2,0,0,0-.564.161,9.464,9.464,0,0,1-2.548.37,7.044,7.044,0,0,1-4.012-1.08,5.192,5.192,0,0,1-2.288-4.432,5.354,5.354,0,0,1,2.029-4.272" transform="translate(39.147 14.184)"/><path class="a" d="M147.289,53.049c-.774,0-.807.031-.807.514v2.274c0,1.692.081,1.918.985,2.014l.466.049c.1.064.065.355-.033.4-.87-.031-1.419-.048-2.046-.048-.694,0-1.242.031-1.87.048a.312.312,0,0,1-.032-.4l.274-.049c.9-.161.934-.322.934-2.014v-5.8c0-1.692-.113-1.966-.95-2.031l-.42-.032c-.1-.064-.065-.355.031-.4.79.017,1.338.048,2.032.048.628,0,1.176-.016,1.87-.048.1.048.129.339.031.4L147.45,48c-.935.1-.968.339-.968,2.031v1.853c0,.5.032.517.807.517h4.61c.773,0,.806-.017.806-.517V50.035c0-1.692-.032-1.934-.983-2.031l-.305-.032c-.1-.064-.065-.355.031-.4.742.032,1.29.048,1.95.048.63,0,1.177-.016,1.9-.048.1.048.129.339.03.4l-.336.032c-.935.1-.967.339-.967,2.031v5.8c0,1.692.031,1.9.967,2.014l.388.049c.095.064.062.355-.034.4-.774-.031-1.321-.048-1.951-.048-.66,0-1.241.017-1.95.048a.314.314,0,0,1-.031-.4l.305-.049c.983-.161.983-.322.983-2.014V53.563c0-.483-.032-.514-.806-.514Z" transform="translate(43.003 14.232)"/><path class="a" d="M155.787,50.035c0-1.676-.031-1.918-.982-2.029l-.259-.034c-.1-.064-.064-.353.033-.4.694.031,1.241.048,1.9.048h3.031a21.755,21.755,0,0,0,2.176-.048,18.587,18.587,0,0,1,.257,2.142.313.313,0,0,1-.4.032c-.243-.757-.388-1.321-1.226-1.53a7.573,7.573,0,0,0-1.563-.1h-1.16c-.483,0-.483.032-.483.646v3.222c0,.452.048.452.533.452h.933a5.928,5.928,0,0,0,1.371-.1c.194-.064.308-.161.387-.564l.129-.66a.316.316,0,0,1,.418.016c0,.387-.064,1.016-.064,1.628,0,.581.064,1.193.064,1.547a.316.316,0,0,1-.418.016l-.146-.629a.685.685,0,0,0-.5-.612A5.367,5.367,0,0,0,158.575,53h-.933c-.485,0-.533.016-.533.435v2.272c0,.854.048,1.4.307,1.676.192.194.53.37,1.949.37a4.737,4.737,0,0,0,2.063-.24,4.075,4.075,0,0,0,1.145-1.564.3.3,0,0,1,.4.113,13.972,13.972,0,0,1-.725,2.24c-1.451-.031-2.885-.048-4.32-.048h-1.451c-.692,0-1.241.017-2.19.048a.309.309,0,0,1-.033-.4l.53-.049c.92-.081,1-.322,1-2.014Z" transform="translate(46.134 14.233)"/><path class="a" d="M168.35,54.564c-.113-.355-.177-.4-.661-.4h-2.433c-.4,0-.5.048-.611.387l-.565,1.693a6.093,6.093,0,0,0-.355,1.337c0,.194.081.29.468.322l.531.049a.259.259,0,0,1-.031.4c-.42-.032-.919-.032-1.677-.049-.533,0-1.112.032-1.547.049a.317.317,0,0,1-.031-.4l.53-.049a1.071,1.071,0,0,0,.968-.79c.291-.741.742-1.789,1.419-3.594L166,49.164a2.28,2.28,0,0,0,.272-1.145,1.808,1.808,0,0,0,.841-.611.228.228,0,0,1,.242.144c.209.709.468,1.45.708,2.159l2.21,6.479c.466,1.386.676,1.628,1.368,1.708l.437.049a.317.317,0,0,1,0,.4c-.663-.032-1.225-.049-1.951-.049-.772,0-1.385.032-1.851.049a.27.27,0,0,1-.034-.4l.468-.049c.339-.032.564-.129.564-.29a3.269,3.269,0,0,0-.209-.855Zm-3.191-1.434c-.13.37-.113.387.338.387h1.983c.468,0,.5-.065.355-.5l-.87-2.626a10.524,10.524,0,0,0-.37-1.017h-.032c-.048.082-.209.469-.387.952Z" transform="translate(48.282 14.184)"/><path class="a" d="M171.975,50.035c0-1.692-.031-1.95-1.047-2.029l-.4-.034c-.1-.064-.065-.353.031-.4.9.031,1.451.048,2.1.048s1.178-.017,1.983-.048c.1.048.129.338.033.4l-.387.034c-.95.079-.982.338-.982,2.029v5.609c0,1.016.048,1.436.338,1.741.177.178.483.37,1.758.37,1.371,0,1.707-.064,1.967-.209a3.43,3.43,0,0,0,1.063-1.6c.1-.081.4-.016.4.1a12.9,12.9,0,0,1-.677,2.255c-.822-.031-2.354-.048-4.014-.048h-1.482c-.677,0-1.191.017-2.1.048a.312.312,0,0,1-.031-.4l.483-.049c.935-.1.967-.322.967-2.014Z" transform="translate(51.002 14.233)"/><path class="a" d="M182.183,55.949c0,1.692.031,1.933.967,2.014l.516.049c.1.064.064.353-.032.4-.919-.031-1.467-.048-2.111-.048s-1.208.017-2.24.048a.279.279,0,0,1,0-.4l.579-.049c.919-.081,1-.322,1-2.014V48.744c0-.5,0-.514-.483-.514h-.886a3.306,3.306,0,0,0-1.983.4,2.937,2.937,0,0,0-.725,1.113.313.313,0,0,1-.42-.113,16.78,16.78,0,0,0,.612-2.4.414.414,0,0,1,.308,0c.1.517.629.5,1.369.5h6.527c.87,0,1.016-.032,1.258-.452.081-.031.257-.016.29.048a9.673,9.673,0,0,0-.24,2.45.3.3,0,0,1-.421.032,2.057,2.057,0,0,0-.4-1.177,3.219,3.219,0,0,0-1.871-.4h-1.145c-.483,0-.466.014-.466.547Z" transform="translate(52.766 14.122)"/><path class="a" d="M189.127,53.049c-.774,0-.807.031-.807.514v2.274c0,1.692.081,1.918.984,2.014l.468.049c.1.064.064.355-.032.4-.87-.031-1.419-.048-2.048-.048-.694,0-1.242.031-1.87.048a.312.312,0,0,1-.031-.4l.274-.049c.9-.161.933-.322.933-2.014v-5.8c0-1.692-.112-1.966-.95-2.031l-.42-.032c-.1-.064-.064-.355.032-.4.789.017,1.337.048,2.031.048.629,0,1.177-.016,1.87-.048.1.048.13.339.033.4l-.307.032c-.934.1-.967.339-.967,2.031v1.853c0,.5.032.517.807.517h4.608c.774,0,.807-.017.807-.517V50.035c0-1.692-.032-1.934-.985-2.031l-.3-.032c-.1-.064-.066-.355.03-.4.743.032,1.29.048,1.951.048.629,0,1.176-.016,1.9-.048.1.048.129.339.031.4l-.336.032c-.937.1-.968.339-.968,2.031v5.8c0,1.692.031,1.9.968,2.014l.386.049c.1.064.064.355-.033.4-.774-.031-1.321-.048-1.95-.048-.661,0-1.241.017-1.951.048a.312.312,0,0,1-.03-.4l.3-.049c.985-.161.985-.322.985-2.014V53.563c0-.483-.032-.514-.807-.514Z" transform="translate(55.521 14.232)"/></g></svg>